<svg width="698" height="696" viewBox="0 0 698 696" fill="none" xmlns="http://www.w3.org/2000/svg">
<path d="M672.52 302.013C675.474 462.738 532.595 592.454 367.222 595.494C201.849 598.533 79.2288 454.711 76.275 293.987C73.3213 133.262 206.174 14.3017 371.547 11.2626C401.601 10.8019 403.564 -3.64541 427.448 1.82247C440.335 4.77259 444.524 18.9673 460.921 25.0395C571.712 66.0686 670.272 179.696 672.52 302.013Z" fill="#FF9B85"/>
<path d="M682 385.784C702.275 466.354 704.831 535.954 674.339 585.784C656.545 673.099 606.875 662.673 562.28 656.329C454.359 683.487 317.889 620.202 283.524 483.64C263.343 403.448 266.351 337.297 284.709 283.046C286.49 187.472 344.481 229.009 389.028 217.798C496.949 190.64 647.634 249.222 682 385.784Z" fill="#FFD97D"/>
<path d="M445 546.987C445 558.954 424.883 568.803 421.943 580.101C400.92 660.897 311.844 696 200.937 696C99.5005 696 26.5389 618.274 14.2173 538.709C6.82027 521.345 0 526.248 0 506.975C0 491.563 16.5187 489.491 21.3258 475.241C46.9426 399.302 130.986 369 237.428 369C336.422 369 392.7 444.161 424.622 512.034C433.491 530.89 445 522.612 445 546.987Z" fill="#60D394"/>
</svg>
